<svg xmlns="http://www.w3.org/2000/svg" id="Layer_1" version="1.1" viewBox="480.17 1781.27 3241.39 528.59">
  <!-- Generator: Adobe Illustrator 29.0.1, SVG Export Plug-In . SVG Version: 2.1.0 Build 192)  -->
  <defs>
    <style>
      .st0, .st1 {
        fill: #ffffff;
      }

      .st2 {
        fill: #EC1E24;
      }

      .st1 {
        font-family: Raleway-SemiBold, Raleway;
        font-size: 130.5px;
        font-weight: 600;
        letter-spacing: .11em;
      }
    </style>
  </defs>
  <g>
    <polygon class="st0" points="1204.34 1815.22 1150.24 1883.55 830.17 1883.55 884.26 1951.87 797.12 1951.87 743.02 1883.55 534.27 1883.55 480.17 1815.22 1204.34 1815.22"/>
    <polygon class="st0" points="938.36 2020.2 946.63 2030.65 990.21 2085.69 946.63 2140.73 903.06 2085.69 851.22 2020.2 729.61 2020.2 842.25 2162.49 869.74 2127.77 913.31 2182.81 885.83 2217.53 842.25 2272.57 798.68 2217.53 642.46 2020.2 588.37 1951.87 1096.15 1951.87 1042.05 2020.2 938.36 2020.2"/>
  </g>
  <g>
    <g>
      <path class="st0" d="M1507.5,2086.58v-232.45h-116.43v-52.67h285.12v52.67h-116.03v232.45h-52.67Z"/>
      <path class="st0" d="M1758.96,2086.58c-10.04,0-19.21-2.5-27.52-7.52-8.31-5.01-14.92-11.62-19.8-19.8-4.88-8.18-7.32-17.29-7.32-27.32v-86.33h181.37v-32.08c0-1.32-.46-2.44-1.38-3.37-.93-.92-2.05-1.39-3.37-1.39h-176.62v-51.87h178.6c10.03,0,19.21,2.51,27.53,7.52,8.31,5.02,14.91,11.62,19.8,19.8,4.88,8.19,7.33,17.29,7.33,27.32v175.03h-178.6ZM1760.94,2034.7h124.74v-42.37h-129.49v37.62c0,1.33.46,2.45,1.39,3.37.92.93,2.04,1.38,3.36,1.38Z"/>
      <path class="st0" d="M1979.14,1833.93v-52.27h51.87v52.27h-51.87ZM1979.14,2086.58v-229.68h51.87v229.68h-51.87Z"/>
      <path class="st0" d="M2102.69,2079.06c-8.19-5.01-14.79-11.62-19.8-19.8-5.02-8.18-7.52-17.29-7.52-27.32v-250.67h52.27v248.69c0,1.33.46,2.45,1.39,3.37.92.93,2.04,1.38,3.36,1.38h43.96v51.88h-46.33c-10.04,0-19.14-2.5-27.32-7.52Z"/>
      <path class="st0" d="M2471.38,2086.58v-175.03c0-10.03,2.5-19.14,7.52-27.32,5.01-8.18,11.68-14.78,20-19.8,8.31-5.01,17.36-7.52,27.12-7.52h127.51v51.87h-125.53c-1.32,0-2.44.47-3.36,1.39-.93.93-1.39,2.05-1.39,3.37v173.05h-51.87Z"/>
      <path class="st0" d="M2705.81,2079.06c-8.19-5.01-14.79-11.62-19.8-19.8-5.02-8.18-7.52-17.29-7.52-27.32v-245.52h51.87v70.49h89.5v51.87h-89.5v121.18c0,1.33.46,2.45,1.39,3.37.92.93,2.04,1.38,3.36,1.38h84.75v51.88h-86.73c-10.04,0-19.14-2.5-27.32-7.52Z"/>
      <path class="st0" d="M2878.46,2079.06c-8.19-5.01-14.79-11.62-19.8-19.8-5.02-8.18-7.52-17.29-7.52-27.32v-120.38c0-10.03,2.5-19.14,7.52-27.32,5.01-8.18,11.61-14.78,19.8-19.8,8.18-5.01,17.29-7.52,27.32-7.52h123.95c10.03,0,19.21,2.51,27.53,7.52,8.31,5.02,14.91,11.62,19.8,19.8,4.88,8.19,7.33,17.29,7.33,27.32v86.33h-181.37v32.08c0,1.33.46,2.45,1.39,3.37.92.93,2.04,1.38,3.36,1.38h176.62v51.88h-178.6c-10.04,0-19.14-2.5-27.32-7.52ZM2903.02,1951.15h129.49v-37.62c0-1.32-.46-2.44-1.38-3.37-.93-.92-2.05-1.39-3.37-1.39h-119.99c-1.32,0-2.44.47-3.36,1.39-.93.93-1.39,2.05-1.39,3.37v37.62Z"/>
      <path class="st0" d="M3143.39,2079.06c-8.19-5.01-14.79-11.62-19.8-19.8-5.02-8.18-7.52-17.29-7.52-27.32v-120.38c0-10.03,2.5-19.14,7.52-27.32,5.01-8.18,11.61-14.78,19.8-19.8,8.18-5.01,17.29-7.52,27.32-7.52h178.2v51.87h-176.22c-1.32,0-2.44.47-3.36,1.39-.93.93-1.39,2.05-1.39,3.37v116.42c0,1.33.46,2.45,1.39,3.37.92.93,2.04,1.38,3.36,1.38h176.62v51.88h-178.6c-10.04,0-19.14-2.5-27.32-7.52Z"/>
      <path class="st0" d="M3382.58,2086.58v-304.92h51.87v75.24h126.72c10.03,0,19.14,2.51,27.32,7.52,8.18,5.02,14.78,11.62,19.8,19.8,5.01,8.19,7.52,17.29,7.52,27.32v175.03h-51.88v-173.05c0-1.32-.46-2.44-1.38-3.37-.93-.92-2.05-1.39-3.37-1.39h-119.99c-1.32,0-2.44.47-3.36,1.39-.93.93-1.39,2.05-1.39,3.37v173.05h-51.87Z"/>
    </g>
    <path class="st2" d="M2315.87,1856.9c-63.43,0-114.84,51.41-114.84,114.84s51.42,114.84,114.84,114.84,114.84-51.41,114.84-114.84-51.41-114.84-114.84-114.84ZM2272.54,2032.23c-12.54,0-22.72-10.18-22.72-22.72s10.18-22.7,22.72-22.7,22.7,10.16,22.7,22.7-10.16,22.72-22.7,22.72ZM2315.87,1956.67c-12.54,0-22.7-10.16-22.7-22.7s10.16-22.7,22.7-22.7,22.7,10.16,22.7,22.7-10.16,22.7-22.7,22.7ZM2359.2,2032.23c-12.54,0-22.7-10.18-22.7-22.72s10.16-22.7,22.7-22.7,22.72,10.16,22.72,22.7-10.18,22.72-22.72,22.72Z"/>
  </g>
  <text class="st1" transform="translate(1377.38 2281.58) scale(1.05 1)"><tspan x="0" y="0">YOUR STYLE IS YOUR STORY</tspan></text>
</svg>